<svg width="28" height="32" viewBox="0 0 28 32" xmlns="http://www.w3.org/2000/svg">
    <path d="M4.05 14.143a2.71 2.71 0 0 0 2.7-2.714 2.71 2.71 0 0 0-2.7-2.715 2.71 2.71 0 0 0-2.7 2.715 2.71 2.71 0 0 0 2.7 2.714zm18.9 0a2.71 2.71 0 0 0 2.7-2.714 2.71 2.71 0 0 0-2.7-2.715 2.71 2.71 0 0 0-2.7 2.715 2.71 2.71 0 0 0 2.7 2.714zM24.3 15.5h-2.7c-.742 0-1.413.301-1.903.789a6.204 6.204 0 0 1 3.169 4.64h2.784c.747 0 1.35-.607 1.35-1.358v-1.357a2.71 2.71 0 0 0-2.7-2.714zm-10.8 0c2.611 0 4.725-2.125 4.725-4.75S16.111 6 13.5 6c-2.611 0-4.725 2.125-4.725 4.75s2.114 4.75 4.725 4.75zm3.24 1.357h-.35a6.617 6.617 0 0 1-2.89.679 6.631 6.631 0 0 1-2.89-.679h-.35c-2.683 0-4.86 2.189-4.86 4.886v1.221A2.03 2.03 0 0 0 7.425 25h12.15a2.03 2.03 0 0 0 2.025-2.036v-1.221c0-2.697-2.177-4.886-4.86-4.886zm-9.437-.568A2.685 2.685 0 0 0 5.4 15.5H2.7A2.71 2.71 0 0 0 0 18.214v1.357c0 .751.603 1.358 1.35 1.358h2.78a6.22 6.22 0 0 1 3.173-4.64z" fill="#a358a3" fill-rule="nonzero"/>
</svg>
