<svg width="28" height="32" viewBox="0 0 28 32" xmlns="http://www.w3.org/2000/svg">
    <path d="M22.625 4.833h-4.792A3.837 3.837 0 0 0 14 1a3.837 3.837 0 0 0-3.833 3.833H5.375A2.876 2.876 0 0 0 2.5 7.708v21.084a2.876 2.876 0 0 0 2.875 2.875h17.25a2.876 2.876 0 0 0 2.875-2.875V7.708a2.876 2.876 0 0 0-2.875-2.875zM8.25 26.396c-.797 0-1.438-.641-1.438-1.438 0-.796.641-1.437 1.438-1.437.797 0 1.438.64 1.438 1.437s-.641 1.438-1.438 1.438zm0-5.75c-.797 0-1.438-.641-1.438-1.438 0-.796.641-1.437 1.438-1.437.797 0 1.438.64 1.438 1.437s-.641 1.438-1.438 1.438zm0-5.75c-.797 0-1.438-.641-1.438-1.438 0-.796.641-1.437 1.438-1.437.797 0 1.438.64 1.438 1.437s-.641 1.438-1.438 1.438zM14 3.396c.797 0 1.438.64 1.438 1.437S14.796 6.271 14 6.271c-.797 0-1.438-.641-1.438-1.438 0-.796.641-1.437 1.438-1.437zm7.667 22.041a.48.48 0 0 1-.48.48h-8.625a.48.48 0 0 1-.479-.48v-.958a.48.48 0 0 1 .48-.479h8.624a.48.48 0 0 1 .48.48v.957zm0-5.75a.48.48 0 0 1-.48.48h-8.625a.48.48 0 0 1-.479-.48v-.958a.48.48 0 0 1 .48-.479h8.624a.48.48 0 0 1 .48.48v.957zm0-5.75a.48.48 0 0 1-.48.48h-8.625a.48.48 0 0 1-.479-.48v-.958a.48.48 0 0 1 .48-.479h8.624a.48.48 0 0 1 .48.48v.957z" fill="#FFF" fill-rule="nonzero"/>
</svg>
