<svg width="28" height="32" viewBox="0 0 28 32" xmlns="http://www.w3.org/2000/svg">
    <path d="m21.606 14.23-.346.616a.516.516 0 0 1-.637.233 4.64 4.64 0 0 1-1.354-.802.544.544 0 0 1-.118-.677l.346-.616a3.742 3.742 0 0 1-.671-1.181h-.696a.524.524 0 0 1-.515-.444 4.962 4.962 0 0 1 0-1.6.528.528 0 0 1 .515-.448h.696c.152-.436.38-.837.67-1.182l-.345-.616a.538.538 0 0 1 .118-.677c.4-.34.86-.612 1.354-.802.24-.09.51.004.637.233l.346.616a3.67 3.67 0 0 1 1.338 0l.346-.616a.516.516 0 0 1 .637-.233c.498.19.953.461 1.354.802a.544.544 0 0 1 .118.677l-.346.616c.292.345.52.746.671 1.182h.696c.254 0 .473.185.515.444.085.517.089 1.06 0 1.6a.528.528 0 0 1-.515.448h-.696c-.152.435-.38.836-.67 1.18l.345.617a.538.538 0 0 1-.118.677c-.4.341-.86.613-1.354.802a.516.516 0 0 1-.637-.233l-.346-.616a3.67 3.67 0 0 1-1.338 0zm-.443-2.535c1.625 1.276 3.477-.617 2.228-2.277-1.624-1.28-3.476.617-2.228 2.277zM16.3 18.33l1.422.724c.426.25.611.78.443 1.255-.376 1.043-1.114 2-1.798 2.837a.994.994 0 0 1-1.278.228l-1.228-.724a7.212 7.212 0 0 1-2.316 1.367v1.448c0 .5-.35.932-.831 1.018a9.288 9.288 0 0 1-3.203 0 1.03 1.03 0 0 1-.843-1.018v-1.448A7.29 7.29 0 0 1 4.35 22.65l-1.227.72a.995.995 0 0 1-1.279-.228c-.683-.837-1.405-1.794-1.78-2.833-.17-.47.017-1 .443-1.255l1.405-.724a7.63 7.63 0 0 1 0-2.733l-1.405-.729a1.039 1.039 0 0 1-.443-1.25c.375-1.044 1.097-2 1.78-2.837a.994.994 0 0 1 1.279-.229l1.227.725A7.212 7.212 0 0 1 6.667 9.91V8.457c0-.496.346-.927.827-1.013a9.419 9.419 0 0 1 3.206-.005c.485.087.844.514.844 1.018v1.449a7.29 7.29 0 0 1 2.316 1.366l1.228-.724a.995.995 0 0 1 1.278.228c.684.837 1.401 1.794 1.777 2.837.168.47.004 1-.422 1.255l-1.422.724a7.654 7.654 0 0 1 0 2.738zm-4.962.91c2.498-3.32-1.21-7.11-4.46-4.557-2.497 3.32 1.211 7.11 4.46 4.557zm10.27 7.877-.347.616a.516.516 0 0 1-.637.233 4.64 4.64 0 0 1-1.354-.802.544.544 0 0 1-.118-.677l.346-.616a3.742 3.742 0 0 1-.671-1.182h-.696a.524.524 0 0 1-.515-.444 4.962 4.962 0 0 1 0-1.6.528.528 0 0 1 .515-.448h.696c.152-.435.38-.836.67-1.18l-.345-.617a.538.538 0 0 1 .118-.677c.4-.341.86-.613 1.354-.802.24-.09.51.004.637.233l.346.616a3.67 3.67 0 0 1 1.338 0l.346-.616a.516.516 0 0 1 .637-.233c.498.19.953.461 1.354.802a.544.544 0 0 1 .118.677l-.346.616c.292.345.52.746.671 1.181h.696c.254 0 .473.186.515.444.085.518.089 1.061 0 1.6a.528.528 0 0 1-.515.448h-.696c-.152.436-.38.837-.67 1.182l.345.616a.538.538 0 0 1-.118.677c-.4.34-.86.612-1.354.802a.516.516 0 0 1-.637-.233l-.346-.616a3.67 3.67 0 0 1-1.338 0zm-.444-2.54c1.625 1.276 3.477-.616 2.228-2.276-1.624-1.276-3.476.616-2.228 2.276z" fill="#FFF" fill-rule="nonzero"/>
</svg>
