<svg width="28" height="32" viewBox="0 0 28 32" xmlns="http://www.w3.org/2000/svg">
    <path d="M26.707 24.017c.834 1.455-.212 3.275-1.876 3.275H3.169c-1.667 0-2.708-1.822-1.877-3.275L12.123 5.09c.834-1.456 2.922-1.453 3.754 0l10.83 18.926zM14 20.104a2.085 2.085 0 0 0-2.076 2.093c0 1.155.93 2.092 2.076 2.092a2.085 2.085 0 0 0 2.076-2.092c0-1.156-.93-2.093-2.076-2.093zm-1.971-7.522.334 6.187c.016.29.254.516.541.516h2.192a.543.543 0 0 0 .54-.516l.335-6.187a.544.544 0 0 0-.54-.575h-2.862a.544.544 0 0 0-.54.575z" fill="#FFF" fill-rule="nonzero"/>
</svg>
